<?xml version="1.0" encoding="UTF-8"?>
<!-- Generated by Pixelmator Pro 4.0 -->
<svg width="1280" height="640" viewBox="0 0 1280 640" xmlns="http://www.w3.org/2000/svg">
    <linearGradient id="linearGradient1" x1="0" y1="0" x2="1280" y2="640" gradientUnits="userSpaceOnUse">
        <stop offset="1e-05" stop-color="#0d1117" stop-opacity="1"/>
        <stop offset="1" stop-color="#111520" stop-opacity="1"/>
    </linearGradient>
    <path id="Path" fill="url(#linearGradient1)" stroke="none" d="M 0 0 L 1280 0 L 1280 640 L 0 640 Z"/>
    <path id="path1" fill="#161b22" stroke="none" opacity="0.8" d="M 0 612 L 1280 612 L 1280 640 L 0 640 Z"/>
    <path id="path2" fill="#30363d" stroke="none" d="M 0 612 L 1280 612 L 1280 613 L 0 613 Z"/>
    <g id="Group">
        <path id="path3" fill="#f05138" stroke="none" opacity="0.025" d="M 696 308 C 696 382.26062 651.750122 453.479706 572.984863 505.989929 C 494.219543 558.500061 387.39093 588 276 588 C 164.60907 588 57.780434 558.500061 -20.984848 505.989929 C -99.75013 453.479706 -144 382.26062 -144 308 C -144 233.73938 -99.75013 162.520294 -20.984848 110.010132 C 57.780434 57.499939 164.60907 28 276 28 C 387.39093 28 494.219543 57.499939 572.984863 110.010132 C 651.750122 162.520294 696 233.73938 696 308 Z"/>
        <path id="path4" fill="#79c0ff" stroke="none" opacity="0.02" d="M 1280 308 C 1280 451.594025 1136.731079 568 960 568 C 783.26886 568 640 451.594025 640 308 C 640 164.405945 783.26886 48 960 48 C 1136.731079 48 1280 164.405945 1280 308 Z"/>
        <linearGradient id="linearGradient2" x1="-24" y1="-12" x2="-24" y2="88" gradientUnits="userSpaceOnUse">
            <stop offset="1e-05" stop-color="#f05138" stop-opacity="1"/>
            <stop offset="1" stop-color="#c0392b" stop-opacity="1"/>
        </linearGradient>
        <path id="path5" fill="url(#linearGradient2)" stroke="none" d="M 59 116 L 59 116 C 60.656853 116 62 117.34314 62 119 L 62 221 C 62 222.65686 60.656853 224 59 224 L 59 224 C 57.343147 224 56 222.65686 56 221 L 56 119 C 56 117.34314 57.343147 116 59 116 Z"/>
        <text id="SwiftMutationTesting" xml:space="preserve" x="83" y="210" font-family="Helvetica" font-size="52" fill="#ffffff" letter-spacing="-2">Swift Mutation Testing</text>
        <text id="subtitle" xml:space="preserve" x="85" y="265" font-family="Helvetica" font-size="25" fill="#8b949e" letter-spacing="0.3">Find untested behaviour in Swift codebases</text>
        <path id="path6" fill="#f05138" stroke="none" opacity="0.55" d="M 87.400002 305 L 476.600006 305 C 477.373199 305 478 305.111938 478 305.25 L 478 305.25 C 478 305.388062 477.373199 305.5 476.600006 305.5 L 87.400002 305.5 C 86.626801 305.5 86 305.388062 86 305.25 L 86 305.25 C 86 305.111938 86.626801 305 87.400002 305 Z"/>
        <path id="path7" fill="#f05138" stroke="none" d="M 88 342 L 92 342 C 93.104568 342 94 342.895416 94 344 L 94 348 C 94 349.104584 93.104568 350 92 350 L 88 350 C 86.895432 350 86 349.104584 86 348 L 86 344 C 86 342.895416 86.895432 342 88 342 Z"/>
        <text id="feature1" xml:space="preserve" x="105" y="353" font-family="Helvetica" font-size="19" fill="#c9d1d9">discover mutants using operator visitors</text>
        <path id="path8" fill="#f05138" stroke="none" d="M 88 381 L 92 381 C 93.104568 381 94 381.895416 94 383 L 94 387 C 94 388.104584 93.104568 389 92 389 L 88 389 C 86.895432 389 86 388.104584 86 387 L 86 383 C 86 381.895416 86.895432 381 88 381 Z"/>
        <text id="feature2" xml:space="preserve" x="105" y="392" font-family="Helvetica" font-size="19" fill="#c9d1d9">schema-based parallel execution</text>
        <path id="path9" fill="#f05138" stroke="none" d="M 88 420 L 92 420 C 93.104568 420 94 420.895416 94 422 L 94 426 C 94 427.104584 93.104568 428 92 428 L 88 428 C 86.895432 428 86 427.104584 86 426 L 86 422 C 86 420.895416 86.895432 420 88 420 Z"/>
        <text id="feature3" xml:space="preserve" x="105" y="431" font-family="Helvetica" font-size="19" fill="#c9d1d9">HTML, JSON and SonarCloud reports</text>
        <path id="path10" fill="#f05138" stroke="none" d="M 88 459 L 92 459 C 93.104568 459 94 459.895416 94 461 L 94 465 C 94 466.104584 93.104568 467 92 467 L 88 467 C 86.895432 467 86 466.104584 86 465 L 86 461 C 86 459.895416 86.895432 459 88 459 Z"/>
        <text id="feature4" xml:space="preserve" x="105" y="470" font-family="Helvetica" font-size="19" fill="#c9d1d9">supports iOS, macOS, tvOS and watchOS</text>
        <path id="path11" fill="#f05138" fill-opacity="0.12" stroke="#f05138" stroke-width="1.2" stroke-opacity="0.5" d="M 99 511 L 161 511 C 168.179703 511 174 516.820313 174 524 L 174 524 C 174 531.179688 168.179703 537 161 537 L 99 537 C 91.820297 537 86 531.179688 86 524 L 86 524 C 86 516.820313 91.820297 511 99 511 Z"/>
        <text id="Swift-6" xml:space="preserve" x="110.994141" y="530" font-family="Helvetica" font-size="12" fill="#f05138">Swift 6</text>
        <path id="path12" fill="#79c0ff" fill-opacity="0.1" stroke="#79c0ff" stroke-width="1.2" stroke-opacity="0.4" d="M 199 511 L 257 511 C 264.179688 511 270 516.820313 270 524 L 270 524 C 270 531.179688 264.179688 537 257 537 L 199 537 C 191.820297 537 186 531.179688 186 524 L 186 524 C 186 516.820313 191.820297 511 199 511 Z"/>
        <text id="macOS" xml:space="preserve" x="206.996094" y="530" font-family="Helvetica" font-size="12" fill="#79c0ff">macOS</text>
        <path id="path13" fill="#56d364" fill-opacity="0.1" stroke="#56d364" stroke-width="1.2" stroke-opacity="0.4" d="M 295 511 L 377 511 C 384.179688 511 390 516.820313 390 524 L 390 524 C 390 531.179688 384.179688 537 377 537 L 295 537 C 287.820313 537 282 531.179688 282 524 L 282 524 C 282 516.820313 287.820313 511 295 511 Z"/>
        <text id="Open-Source" xml:space="preserve" x="299.644531" y="530" font-family="Helvetica" font-size="12" fill="#56d364">Open Source</text>
        <path id="path14" fill="#000000" stroke="none" opacity="0.4" d="M 713 70 L 1215 70 C 1222.179688 70 1228 75.820313 1228 83 L 1228 547 C 1228 554.179688 1222.179688 560 1215 560 L 713 560 C 705.820313 560 700 554.179688 700 547 L 700 83 C 700 75.820313 705.820313 70 713 70 Z"/>
        <linearGradient id="linearGradient3" x1="-24" y1="-12" x2="-24" y2="476" gradientUnits="userSpaceOnUse">
            <stop offset="1e-05" stop-color="#1c2128" stop-opacity="1"/>
            <stop offset="1" stop-color="#161b22" stop-opacity="1"/>
        </linearGradient>
        <path id="path15" fill="url(#linearGradient3)" stroke="#30363d" d="M 708 64 L 1212 64 C 1218.627441 64 1224 69.372559 1224 76 L 1224 542 C 1224 548.627441 1218.627441 554 1212 554 L 708 554 C 701.372559 554 696 548.627441 696 542 L 696 76 C 696 69.372559 701.372559 64 708 64 Z"/>
        <path id="path16" fill="#21262d" stroke="none" d="M 708 64 L 1212 64 C 1218.627441 64 1224 69.372559 1224 76 L 1224 92 C 1224 98.627441 1218.627441 104 1212 104 L 708 104 C 701.372559 104 696 98.627441 696 92 L 696 76 C 696 69.372559 701.372559 64 708 64 Z"/>
        <path id="path17" fill="#21262d" stroke="none" d="M 696 90 L 1224 90 L 1224 104 L 696 104 Z"/>
        <path id="path18" fill="#ff5f57" stroke="none" d="M 732.5 84 C 732.5 87.589844 729.589844 90.5 726 90.5 C 722.410156 90.5 719.5 87.589844 719.5 84 C 719.5 80.410156 722.410156 77.5 726 77.5 C 729.589844 77.5 732.5 80.410156 732.5 84 Z"/>
        <path id="path19" fill="#ffbd2e" stroke="none" d="M 757.5 84 C 757.5 87.589844 754.589844 90.5 751 90.5 C 747.410156 90.5 744.5 87.589844 744.5 84 C 744.5 80.410156 747.410156 77.5 751 77.5 C 754.589844 77.5 757.5 80.410156 757.5 84 Z"/>
        <path id="path20" fill="#28ca41" stroke="none" d="M 782.5 84 C 782.5 87.589844 779.589844 90.5 776 90.5 C 772.410156 90.5 769.5 87.589844 769.5 84 C 769.5 80.410156 772.410156 77.5 776 77.5 C 779.589844 77.5 782.5 80.410156 782.5 84 Z"/>
        <text id="terminal-title" xml:space="preserve" x="872.892944" y="91" font-family="Helvetica" font-size="12.5" fill="#8b949e">swift-mutation-testing — zsh</text>
        <text id="prompt1" xml:space="preserve" x="721" y="146" font-family="Helvetica" font-size="13" fill="#56d364">$</text>
        <text id="command" xml:space="preserve" x="736" y="146" font-family="Helvetica" font-size="13" fill="#c9d1d9">swift-mutation-testing --scheme App</text>
        <text id="discovery-line" xml:space="preserve" x="721" y="170" font-family="Helvetica" font-size="13" fill="#6e7681">Discovering mutants... found 247</text>
        <path id="path21" fill="#f05138" stroke="none" opacity="0.07" d="M 696 184 L 1224 184 L 1224 206 L 696 206 Z"/>
        <text id="file1-name" xml:space="preserve" x="721" y="202" font-family="Helvetica" font-size="13" fill="#f05138">Sources/UserService.swift</text>
        <text id="file1-status" xml:space="preserve" x="930" y="202" font-family="Helvetica" font-size="13" fill="#6e7681">line 23 · 1 survived</text>
        <text id="file1-mutant1" xml:space="preserve" x="721" y="222" font-family="Helvetica" font-size="12.5" fill="#ffa657">  ✗ ArithmeticOperatorReplacement · survived</text>
        <text id="file1-mutant2" xml:space="preserve" x="721" y="240" font-family="Helvetica" font-size="12.5" fill="#56d364">  ✓ NegateConditional · killed</text>
        <text id="file1-summary" xml:space="preserve" x="721" y="258" font-family="Helvetica" font-size="12" fill="#6e7681">1 survived · 2 killed</text>
        <path id="path22" fill="#21262d" stroke="none" d="M 722 267 L 1206 267 L 1206 268 L 722 268 Z"/>
        <path id="path23" fill="#56d364" stroke="none" opacity="0.05" d="M 696 273 L 1224 273 L 1224 295 L 696 295 Z"/>
        <text id="file2-name" xml:space="preserve" x="721" y="291" font-family="Helvetica" font-size="13" fill="#56d364">Sources/APIClient.swift</text>
        <text id="file2-status" xml:space="preserve" x="900" y="291" font-family="Helvetica" font-size="13" fill="#6e7681">line 67 · all killed</text>
        <text id="file2-mutant1" xml:space="preserve" x="721" y="311" font-family="Helvetica" font-size="12.5" fill="#56d364">  ✓ RelationalOperatorReplacement · killed</text>
        <text id="file2-mutant2" xml:space="preserve" x="721" y="329" font-family="Helvetica" font-size="12.5" fill="#56d364">  ✓ RemoveSideEffects · killed</text>
        <text id="file2-summary" xml:space="preserve" x="721" y="347" font-family="Helvetica" font-size="12" fill="#6e7681">3 killed</text>
        <path id="path24" fill="#21262d" stroke="none" d="M 722 356 L 1206 356 L 1206 357 L 722 357 Z"/>
        <path id="path25" fill="#56d364" stroke="none" opacity="0.05" d="M 696 362 L 1224 362 L 1224 384 L 696 384 Z"/>
        <text id="file3-name" xml:space="preserve" x="721" y="380" font-family="Helvetica" font-size="13" fill="#56d364">Sources/Order.swift</text>
        <text id="file3-status" xml:space="preserve" x="870" y="380" font-family="Helvetica" font-size="13" fill="#6e7681">line 112 · all killed</text>
        <text id="file3-mutant1" xml:space="preserve" x="721" y="400" font-family="Helvetica" font-size="12.5" fill="#56d364">  ✓ BooleanLiteralReplacement · killed</text>
        <text id="file3-mutant2" xml:space="preserve" x="721" y="418" font-family="Helvetica" font-size="12.5" fill="#56d364">  ✓ NegateConditional · killed</text>
        <text id="file3-summary" xml:space="preserve" x="721" y="436" font-family="Helvetica" font-size="12" fill="#6e7681">2 killed</text>
        <path id="path26" fill="#30363d" stroke="none" d="M 722 445 L 1206 445 L 1206 446 L 722 446 Z"/>
        <text id="mutation-score" xml:space="preserve" x="721" y="467" font-family="Helvetica" font-size="13" fill="#56d364">✓ Mutation score: 246/247 killed · 99.5%</text>
        <text id="report-hint" xml:space="preserve" x="721" y="484" font-family="Helvetica" font-size="13" fill="#6e7681">  Run with --html-output for full report</text>
        <text id="prompt2" xml:space="preserve" x="721" y="508" font-family="Helvetica" font-size="13" fill="#56d364">$</text>
        <path id="path27" fill="#56d364" stroke="none" opacity="0.75" d="M 738 494 L 744 494 C 744.552307 494 745 494.447723 745 495 L 745 507 C 745 507.552277 744.552307 508 744 508 L 738 508 C 737.447693 508 737 507.552277 737 507 L 737 495 C 737 494.447723 737.447693 494 738 494 Z"/>
        <text id="footer-url" xml:space="preserve" x="59" y="631" font-family="Helvetica" font-size="12" fill="#6e7681">github.com/ericodx/swift-mutation-testing</text>
        <text id="footer-license" xml:space="preserve" x="1014.816406" y="631" font-family="Helvetica" font-size="12" fill="#6e7681">Swift Package · MIT License</text>
    </g>
</svg>
